<svg viewBox="0 0 1920 1080" height="1080" width="1920"
    xmlns="http://www.w3.org/2000/svg" version="1.1">
    <rect x="0" y="0" width="1920" height="1080" fill="#ff0071ff"></rect>
    <g transform-origin="960 540" transform="scale(1, 1)">
        <linearGradient id="linear-gradient-r2">
            <stop offset="0%" stop-color="#95ffda" stop-opacity="100%"></stop>
            <stop offset="100%" stop-color="#95ffa1ff" stop-opacity="100%"></stop>
        </linearGradient>
        <filter id="shadow-r2" x="-20%" width="150%" y="-20%" height="150%">
            <feDropShadow dx="0" dy="0" stdDeviation="10" flood-color="#00000061"></feDropShadow>
        </filter>
        <path d="M0 0 0,1076.6855275235139 C 98.3975661038421,1028.5459881226532 325.77195565523584,953.9090611599386 491.98783051921055,835.9878305192105 C 658.2037053831853,718.0665998784825 701.6842201449908,654.2769404237159 831.0793743198738,487.07937431987375 C 960.4745284947567,319.88180821603163 1077.3867559788748,97.41587486397478 1138.9636013936251,0 L0 0Z" fill="none" stroke-linecap="round" filter="url(#shadow-r2)" stroke-width="1" style="transition: all 0.4s cubic-bezier(0.16, 1, 0.3, 1) 0s; fill: url(&quot;#linear-gradient-r2&quot;);"></path>
    </g>
    <g transform-origin="960 540" transform="scale(-1, -1)">
        <linearGradient id="linear-gradient-r2">
            <stop offset="0%" stop-color="#95ffda" stop-opacity="100%"></stop>
            <stop offset="100%" stop-color="#95ffa1ff" stop-opacity="100%"></stop>
        </linearGradient>
        <filter id="shadow-r2" x="-20%" width="150%" y="-20%" height="150%">
            <feDropShadow dx="0" dy="0" stdDeviation="10" flood-color="#00000061"></feDropShadow>
        </filter>
        <path d="M0 0 0,1138.9636013936251 C 95.2842437643558,1075.2551248792558 323.818956039194,964.411676317919 476.4212188217789,820.4212188217789 C 629.0234816043637,676.4307613256387 668.8039580448531,583.0955576772801 763.0113139129244,419.0113139129244 C 857.2186697809957,254.9270701485686 910.5686613122932,83.80226278258489 947.4579981621355,0 L0 0Z" fill="none" stroke-linecap="round" filter="url(#shadow-r2)" stroke-width="1" style="transition: all 0.4s cubic-bezier(0.16, 1, 0.3, 1) 0s; fill: url(&quot;#linear-gradient-r2&quot;);"></path>
    </g>
</svg>